<svg preserveAspectRatio="none" overflow="visible" style="display: block;" width="138.75" height="25.026" viewBox="0 0 138.75 25.026" fill="none" xmlns="http://www.w3.org/2000/svg">
<g id="HCLTech">
<path id="Vector" d="M15.2389 0.50832V10.1368H5.19348V0.50832H0V24.7517H5.19348V14.6041H15.2389V24.7517H20.4323V0.50832H15.2389ZM53.5834 20.2468V0.50832H48.3846V20.3167C48.3846 23.1918 49.9472 24.7517 52.8196 24.7517H64.632V20.2468H53.5834ZM64.6293 0.50832V4.97562H71.7942V24.7517H76.9877V4.97562H84.158V0.50832H64.6293ZM94.3163 18.8267C93.9317 20.3167 92.6515 21.0778 90.715 21.0778C88.2918 21.0778 86.7319 19.5529 86.3876 17.0946H98.9208C98.9584 16.7154 98.9934 16.1963 98.9934 15.5374C98.9934 11.5542 96.5352 7.01967 90.3708 7.01967C84.4458 7.01967 81.7482 11.5542 81.7482 15.9892C81.7482 20.3839 84.7981 25.026 90.7177 25.026C95.0129 25.026 98.3345 22.6028 99.0284 18.8267H94.3163ZM90.3654 10.551C92.6838 10.551 94.0339 12.1082 94.1738 14.0528H86.4495C86.869 11.6214 88.1842 10.551 90.3654 10.551ZM114.474 18.2404C114.127 19.7976 112.71 20.8707 110.946 20.8707C108.315 20.8707 106.758 18.8617 106.758 16.0242C106.758 13.1868 108.278 11.1427 110.878 11.1427C112.643 11.1427 114.13 12.2831 114.407 13.8403H119.254C118.942 9.78988 115.305 7.01967 110.736 7.01967C105.33 7.01967 101.734 10.9302 101.734 16.0215C101.734 21.1101 105.333 25.0234 110.736 25.0234C115.27 25.0234 118.874 22.1133 119.393 18.2377H114.474V18.2404ZM132.274 7.01967C129.85 7.01967 127.946 8.02555 126.94 9.71726V0.50832H122.126V24.7517H126.94V15.1904C126.94 12.9393 128.43 11.3148 130.542 11.3148C132.551 11.3148 133.936 12.8398 133.936 14.9511V24.7517H138.75V13.878C138.75 9.85712 136.187 7.01967 132.274 7.01967ZM23.6947 12.3745C23.6947 4.21718 28.9662 0 34.98 0C40.6387 0 44.786 3.45604 45.3965 8.67641H40.3483C40.0255 6.15364 37.8094 4.45924 34.98 4.45924C31.3464 4.45924 28.5493 7.18911 28.5493 12.3745C28.5493 17.5599 31.3464 20.2575 34.98 20.2575C37.8739 20.2575 40.0928 18.5631 40.4774 16.0753H45.2997C44.8828 21.2607 40.7356 24.7517 34.98 24.7517C28.8694 24.749 23.6947 20.5319 23.6947 12.3745Z" fill="black"/>
</g>
</svg>
