<svg width="279" height="279" viewBox="0 0 279 279" fill="none" xmlns="http://www.w3.org/2000/svg">
<path d="M139.2 39.2003L161.652 108.299H234.306L175.527 151.004L197.979 220.102L139.2 177.397L80.4217 220.102L102.873 151.004L44.0945 108.299H116.749L139.2 39.2003Z" fill="#0A0707"/>
<path d="M221.283 82.0834L177.389 139.979L218.886 199.616L150.26 175.76L106.366 233.656L107.847 161.017L39.2208 137.161L108.762 116.123L110.244 43.4842L151.742 103.121L221.283 82.0834Z" fill="#0A0707"/>
<path d="M239.187 137.582L170.461 161.149L171.637 233.793L127.986 175.714L59.2599 199.28L101.008 139.818L57.3575 81.7387L126.81 103.069L168.558 43.607L169.734 116.252L239.187 137.582Z" fill="#0A0707"/>
<path d="M236.732 161.281L164.382 167.921L148.339 238.782L119.667 172.025L47.3167 178.665L101.946 130.766L73.2739 64.0091L135.709 101.164L190.339 53.2654L174.297 124.126L236.732 161.281Z" fill="#0A0707"/>
<path d="M230.456 180.094L158.218 172.326L128.507 238.627L113.573 167.524L41.335 159.756L104.343 123.58L89.4085 52.4775L143.284 101.223L206.292 65.0474L176.581 131.349L230.456 180.094Z" fill="#0A0707"/>
<path d="M102.305 122.2V103.884H106.28L112.593 115.186H111.684L117.971 103.884H121.842V122.2H117.529V111.315H118.075L113.347 119.498H110.749L106.02 111.289H106.618V122.2H102.305ZM134.047 122.486C132.662 122.486 131.397 122.261 130.254 121.811C129.111 121.36 128.124 120.719 127.293 119.888C126.478 119.039 125.846 118.035 125.396 116.874C124.963 115.714 124.746 114.432 124.746 113.029C124.746 111.609 124.963 110.319 125.396 109.158C125.846 107.998 126.478 107.002 127.293 106.17C128.124 105.339 129.111 104.707 130.254 104.274C131.397 103.824 132.662 103.598 134.047 103.598C135.433 103.598 136.697 103.824 137.84 104.274C138.984 104.707 139.962 105.339 140.776 106.17C141.608 107.002 142.24 107.998 142.673 109.158C143.123 110.301 143.348 111.583 143.348 113.003C143.348 114.441 143.123 115.74 142.673 116.9C142.24 118.061 141.608 119.065 140.776 119.914C139.962 120.745 138.984 121.386 137.84 121.837C136.697 122.27 135.433 122.486 134.047 122.486ZM134.047 118.485C134.965 118.485 135.745 118.269 136.386 117.836C137.026 117.403 137.52 116.779 137.866 115.965C138.213 115.151 138.386 114.172 138.386 113.029C138.386 111.886 138.213 110.907 137.866 110.093C137.537 109.279 137.044 108.665 136.386 108.249C135.745 107.816 134.965 107.599 134.047 107.599C133.147 107.599 132.367 107.816 131.709 108.249C131.068 108.665 130.575 109.279 130.228 110.093C129.882 110.907 129.709 111.886 129.709 113.029C129.709 114.172 129.873 115.151 130.202 115.965C130.549 116.779 131.051 117.403 131.709 117.836C132.367 118.269 133.147 118.485 134.047 118.485ZM146.171 122.2V103.884H154.978C157.056 103.884 158.659 104.395 159.784 105.417C160.928 106.422 161.499 107.825 161.499 109.626C161.499 110.786 161.239 111.799 160.72 112.665C160.217 113.514 159.481 114.172 158.511 114.64C157.559 115.09 156.381 115.315 154.978 115.315L155.186 114.848H156.433C157.178 114.848 157.836 115.03 158.407 115.393C158.979 115.74 159.455 116.277 159.836 117.004L162.694 122.2H157.446L154.277 116.381C154.138 116.121 153.974 115.922 153.783 115.783C153.592 115.645 153.376 115.541 153.133 115.471C152.908 115.402 152.657 115.367 152.38 115.367H150.951V122.2H146.171ZM150.951 111.99H154.121C155.039 111.99 155.74 111.808 156.225 111.444C156.71 111.081 156.953 110.518 156.953 109.756C156.953 109.028 156.71 108.483 156.225 108.119C155.74 107.738 155.039 107.547 154.121 107.547H150.951V111.99ZM164.514 122.2V103.884H177.452V107.573H169.087V111.055H176.855V114.744H169.087V118.511H177.452V122.2H164.514ZM96.4442 150.486C94.4177 150.486 92.6771 150.096 91.2222 149.317C89.7673 148.537 88.6501 147.438 87.8707 146.017C87.1086 144.597 86.7276 142.934 86.7276 141.029C86.7276 139.124 87.1086 137.47 87.8707 136.067C88.6501 134.647 89.7673 133.547 91.2222 132.768C92.6771 131.988 94.4177 131.598 96.4442 131.598C97.6566 131.598 98.8257 131.78 99.9515 132.144C101.077 132.508 101.987 133.001 102.679 133.625L101.251 137.392C100.488 136.838 99.7263 136.431 98.9643 136.171C98.2022 135.894 97.4228 135.755 96.626 135.755C95.0153 135.755 93.8029 136.214 92.9888 137.132C92.1748 138.033 91.7677 139.332 91.7677 141.029C91.7677 142.744 92.1748 144.06 92.9888 144.978C93.8029 145.879 95.0153 146.329 96.626 146.329C97.4228 146.329 98.2022 146.199 98.9643 145.939C99.7263 145.662 100.488 145.247 101.251 144.692L102.679 148.46C101.987 149.066 101.077 149.559 99.9515 149.94C98.8257 150.304 97.6566 150.486 96.4442 150.486ZM113.256 150.486C111.87 150.486 110.606 150.261 109.462 149.811C108.319 149.36 107.332 148.719 106.501 147.888C105.687 147.039 105.055 146.035 104.604 144.874C104.171 143.714 103.955 142.432 103.955 141.029C103.955 139.609 104.171 138.319 104.604 137.158C105.055 135.998 105.687 135.002 106.501 134.17C107.332 133.339 108.319 132.707 109.462 132.274C110.606 131.824 111.87 131.598 113.256 131.598C114.641 131.598 115.906 131.824 117.049 132.274C118.192 132.707 119.17 133.339 119.984 134.17C120.816 135.002 121.448 135.998 121.881 137.158C122.331 138.301 122.557 139.583 122.557 141.003C122.557 142.441 122.331 143.74 121.881 144.9C121.448 146.061 120.816 147.065 119.984 147.914C119.17 148.745 118.192 149.386 117.049 149.837C115.906 150.27 114.641 150.486 113.256 150.486ZM113.256 146.485C114.174 146.485 114.953 146.269 115.594 145.836C116.235 145.403 116.728 144.779 117.075 143.965C117.421 143.151 117.594 142.172 117.594 141.029C117.594 139.886 117.421 138.907 117.075 138.093C116.746 137.279 116.252 136.665 115.594 136.249C114.953 135.816 114.174 135.599 113.256 135.599C112.355 135.599 111.576 135.816 110.917 136.249C110.277 136.665 109.783 137.279 109.437 138.093C109.09 138.907 108.917 139.886 108.917 141.029C108.917 142.172 109.081 143.151 109.411 143.965C109.757 144.779 110.259 145.403 110.917 145.836C111.576 146.269 112.355 146.485 113.256 146.485ZM125.431 150.2V131.884H129.406L135.719 143.186H134.81L141.097 131.884H144.968V150.2H140.655V139.315H141.201L136.473 147.498H133.875L129.146 139.289H129.744V150.2H125.431ZM148.34 150.2V131.884H153.12V150.2H148.34ZM156.433 150.2V131.884H159.941L169.086 143.289H168.358V131.884H172.775V150.2H169.294L160.149 138.769H160.876V150.2H156.433ZM185.474 150.486C183.379 150.486 181.595 150.096 180.123 149.317C178.668 148.537 177.559 147.446 176.797 146.043C176.035 144.64 175.654 143.004 175.654 141.133C175.654 139.193 176.052 137.513 176.849 136.093C177.663 134.655 178.824 133.547 180.33 132.768C181.837 131.988 183.656 131.598 185.786 131.598C186.635 131.598 187.466 131.676 188.28 131.832C189.094 131.971 189.839 132.187 190.515 132.482C191.207 132.759 191.796 133.088 192.281 133.469L190.826 137.158C190.012 136.639 189.207 136.266 188.41 136.041C187.614 135.799 186.747 135.677 185.812 135.677C184.063 135.677 182.755 136.145 181.889 137.08C181.041 137.998 180.616 139.349 180.616 141.133C180.616 142.9 181.049 144.233 181.915 145.134C182.781 146.035 184.063 146.485 185.76 146.485C186.28 146.485 186.843 146.433 187.449 146.329C188.072 146.225 188.696 146.078 189.32 145.888L188.436 147.68V143.238H184.773V139.886H192.333V149.083C191.692 149.378 190.991 149.629 190.229 149.837C189.484 150.044 188.705 150.2 187.891 150.304C187.094 150.425 186.289 150.486 185.474 150.486ZM105.368 178.486C104.416 178.486 103.48 178.408 102.563 178.252C101.645 178.096 100.796 177.871 100.016 177.577C99.2371 177.282 98.5616 176.936 97.99 176.537L99.315 172.822C99.8519 173.169 100.449 173.472 101.108 173.732C101.766 173.991 102.459 174.199 103.186 174.355C103.913 174.494 104.641 174.563 105.368 174.563C106.512 174.563 107.308 174.416 107.759 174.121C108.226 173.81 108.46 173.429 108.46 172.978C108.46 172.701 108.391 172.467 108.252 172.277C108.114 172.086 107.88 171.922 107.551 171.783C107.239 171.627 106.815 171.497 106.278 171.393L103.238 170.744C101.575 170.398 100.337 169.791 99.5228 168.925C98.7088 168.059 98.3018 166.942 98.3018 165.574C98.3018 164.361 98.6222 163.314 99.263 162.43C99.9212 161.53 100.831 160.837 101.991 160.352C103.169 159.85 104.52 159.598 106.044 159.598C106.893 159.598 107.707 159.676 108.486 159.832C109.283 159.988 110.019 160.222 110.694 160.534C111.37 160.828 111.941 161.175 112.409 161.573L111.084 165.054C110.426 164.569 109.655 164.197 108.772 163.937C107.906 163.66 106.979 163.521 105.992 163.521C105.351 163.521 104.805 163.599 104.355 163.755C103.905 163.894 103.558 164.102 103.316 164.379C103.091 164.656 102.978 164.976 102.978 165.34C102.978 165.704 103.125 166.016 103.42 166.275C103.732 166.518 104.295 166.726 105.109 166.899L108.122 167.548C109.802 167.912 111.058 168.51 111.889 169.341C112.721 170.172 113.136 171.255 113.136 172.589C113.136 173.766 112.816 174.805 112.175 175.706C111.534 176.589 110.634 177.274 109.473 177.759C108.313 178.244 106.945 178.486 105.368 178.486ZM124.317 178.486C122.932 178.486 121.668 178.261 120.524 177.811C119.381 177.36 118.394 176.719 117.563 175.888C116.749 175.039 116.116 174.035 115.666 172.874C115.233 171.714 115.017 170.432 115.017 169.029C115.017 167.609 115.233 166.319 115.666 165.158C116.116 163.998 116.749 163.002 117.563 162.17C118.394 161.339 119.381 160.707 120.524 160.274C121.668 159.824 122.932 159.598 124.317 159.598C125.703 159.598 126.967 159.824 128.111 160.274C129.254 160.707 130.232 161.339 131.046 162.17C131.878 163.002 132.51 163.998 132.943 165.158C133.393 166.301 133.618 167.583 133.618 169.003C133.618 170.441 133.393 171.74 132.943 172.9C132.51 174.061 131.878 175.065 131.046 175.914C130.232 176.745 129.254 177.386 128.111 177.837C126.967 178.27 125.703 178.486 124.317 178.486ZM124.317 174.485C125.235 174.485 126.015 174.269 126.656 173.836C127.297 173.403 127.79 172.779 128.137 171.965C128.483 171.151 128.656 170.172 128.656 169.029C128.656 167.886 128.483 166.907 128.137 166.093C127.807 165.279 127.314 164.665 126.656 164.249C126.015 163.816 125.235 163.599 124.317 163.599C123.417 163.599 122.637 163.816 121.979 164.249C121.338 164.665 120.845 165.279 120.498 166.093C120.152 166.907 119.979 167.886 119.979 169.029C119.979 170.172 120.143 171.151 120.472 171.965C120.819 172.779 121.321 173.403 121.979 173.836C122.637 174.269 123.417 174.485 124.317 174.485ZM145.274 178.486C143.889 178.486 142.624 178.261 141.481 177.811C140.338 177.36 139.351 176.719 138.519 175.888C137.705 175.039 137.073 174.035 136.623 172.874C136.19 171.714 135.973 170.432 135.973 169.029C135.973 167.609 136.19 166.319 136.623 165.158C137.073 163.998 137.705 163.002 138.519 162.17C139.351 161.339 140.338 160.707 141.481 160.274C142.624 159.824 143.889 159.598 145.274 159.598C146.66 159.598 147.924 159.824 149.067 160.274C150.21 160.707 151.189 161.339 152.003 162.17C152.834 163.002 153.467 163.998 153.9 165.158C154.35 166.301 154.575 167.583 154.575 169.003C154.575 170.441 154.35 171.74 153.9 172.9C153.467 174.061 152.834 175.065 152.003 175.914C151.189 176.745 150.21 177.386 149.067 177.837C147.924 178.27 146.66 178.486 145.274 178.486ZM145.274 174.485C146.192 174.485 146.972 174.269 147.612 173.836C148.253 173.403 148.747 172.779 149.093 171.965C149.44 171.151 149.613 170.172 149.613 169.029C149.613 167.886 149.44 166.907 149.093 166.093C148.764 165.279 148.271 164.665 147.612 164.249C146.972 163.816 146.192 163.599 145.274 163.599C144.374 163.599 143.594 163.816 142.936 164.249C142.295 164.665 141.801 165.279 141.455 166.093C141.109 166.907 140.935 167.886 140.935 169.029C140.935 170.172 141.1 171.151 141.429 171.965C141.776 172.779 142.278 173.403 142.936 173.836C143.594 174.269 144.374 174.485 145.274 174.485ZM157.398 178.2V159.884H160.905L170.05 171.289H169.322V159.884H173.739V178.2H170.258L161.113 166.769H161.84V178.2H157.398ZM177.553 172.017L176.124 159.884H181.788L180.333 172.017H177.553ZM176.54 178.2V173.472H181.346V178.2H176.54Z" fill="white" fill-opacity="0.88"/>
</svg>
